name rise30.3154peak39.0474fall46.5389.mot
datacolumns 19
datarows 27
range 22.02825400000000 22.07158300000000
endheader
time	ground_force1_vx	ground_force1_vy	ground_force1_vz	ground_force1_px	ground_force1_py	ground_force1_pz	ground_force2_vx	ground_force2_vy	ground_force2_vz	ground_force2_px	ground_force2_py	ground_force2_pz	ground_torque1_x	ground_torque1_y	ground_torque1_z	ground_torque2_x	ground_torque2_y	ground_torque2_z	
22.02825400000000	62.76100200000000	725.34398499999998	53.13875500000000	0.39422100000000	0.00000000000000	0.09346600000000	0.00000000000000	0.00000000000000	0.00000000000000	0.00000000000000	0.00000000000000	0.00000000000000	0.00000000000000	28.46163900000000	0.00000000000000	0.00000000000000	0.00000000000000	0.00000000000000	
22.02991800000000	62.02670700000000	727.10813299999995	53.15578800000000	0.39249300000000	0.00000000000000	0.09351500000000	0.00000000000000	0.00000000000000	0.00000000000000	0.00000000000000	0.00000000000000	0.00000000000000	0.00000000000000	28.42674300000000	0.00000000000000	0.00000000000000	0.00000000000000	0.00000000000000	
22.03158400000000	61.30269400000000	728.85161500000004	53.17715000000000	0.39076400000000	0.00000000000000	0.09356500000000	0.00000000000000	0.00000000000000	0.00000000000000	0.00000000000000	0.00000000000000	0.00000000000000	0.00000000000000	28.39442200000000	0.00000000000000	0.00000000000000	0.00000000000000	0.00000000000000	
22.03325600000000	60.58949000000000	730.57309199999997	53.20271900000000	0.38903400000000	0.00000000000000	0.09361500000000	0.00000000000000	0.00000000000000	0.00000000000000	0.00000000000000	0.00000000000000	0.00000000000000	0.00000000000000	28.36469200000000	0.00000000000000	0.00000000000000	0.00000000000000	0.00000000000000	
22.03493700000000	59.88751700000000	732.27100600000006	53.23227800000000	0.38730600000000	0.00000000000000	0.09366700000000	0.00000000000000	0.00000000000000	0.00000000000000	0.00000000000000	0.00000000000000	0.00000000000000	0.00000000000000	28.33750600000000	0.00000000000000	0.00000000000000	0.00000000000000	0.00000000000000	
22.03658700000000	59.19709400000000	733.94360099999994	53.26552200000000	0.38558200000000	0.00000000000000	0.09371800000000	0.00000000000000	0.00000000000000	0.00000000000000	0.00000000000000	0.00000000000000	0.00000000000000	0.00000000000000	28.31276100000000	0.00000000000000	0.00000000000000	0.00000000000000	0.00000000000000	
22.03825600000000	58.51844200000000	735.58893599999999	53.30206300000000	0.38386500000000	0.00000000000000	0.09377000000000	0.00000000000000	0.00000000000000	0.00000000000000	0.00000000000000	0.00000000000000	0.00000000000000	0.00000000000000	28.29030000000000	0.00000000000000	0.00000000000000	0.00000000000000	0.00000000000000	
22.03992400000000	57.85168700000000	737.20491100000004	53.34143400000000	0.38215500000000	0.00000000000000	0.09382200000000	0.00000000000000	0.00000000000000	0.00000000000000	0.00000000000000	0.00000000000000	0.00000000000000	0.00000000000000	28.26991600000000	0.00000000000000	0.00000000000000	0.00000000000000	0.00000000000000	
22.04158400000000	57.19686500000000	738.78928399999995	53.38310000000000	0.38045600000000	0.00000000000000	0.09387400000000	0.00000000000000	0.00000000000000	0.00000000000000	0.00000000000000	0.00000000000000	0.00000000000000	0.00000000000000	28.25135700000000	0.00000000000000	0.00000000000000	0.00000000000000	0.00000000000000	
22.04325300000000	56.55392900000000	740.33969100000002	53.42646100000000	0.37876800000000	0.00000000000000	0.09392500000000	0.00000000000000	0.00000000000000	0.00000000000000	0.00000000000000	0.00000000000000	0.00000000000000	0.00000000000000	28.23433200000000	0.00000000000000	0.00000000000000	0.00000000000000	0.00000000000000	
22.04492100000000	55.92275200000000	741.85366599999998	53.47085900000000	0.37709300000000	0.00000000000000	0.09397500000000	0.00000000000000	0.00000000000000	0.00000000000000	0.00000000000000	0.00000000000000	0.00000000000000	0.00000000000000	28.21851300000000	0.00000000000000	0.00000000000000	0.00000000000000	0.00000000000000	
22.04658900000000	55.30313300000000	743.32866300000001	53.51558900000000	0.37543400000000	0.00000000000000	0.09402400000000	0.00000000000000	0.00000000000000	0.00000000000000	0.00000000000000	0.00000000000000	0.00000000000000	0.00000000000000	28.20354000000000	0.00000000000000	0.00000000000000	0.00000000000000	0.00000000000000	
22.04825700000000	54.69480200000000	744.76207699999998	53.55990300000000	0.37379100000000	0.00000000000000	0.09407300000000	0.00000000000000	0.00000000000000	0.00000000000000	0.00000000000000	0.00000000000000	0.00000000000000	0.00000000000000	28.18902900000000	0.00000000000000	0.00000000000000	0.00000000000000	0.00000000000000	
22.04991700000000	54.09742800000000	746.15125999999998	53.60301900000000	0.37216600000000	0.00000000000000	0.09412000000000	0.00000000000000	0.00000000000000	0.00000000000000	0.00000000000000	0.00000000000000	0.00000000000000	0.00000000000000	28.17457100000000	0.00000000000000	0.00000000000000	0.00000000000000	0.00000000000000	
22.05159100000000	53.51062400000000	747.49354400000004	53.64412700000000	0.37056000000000	0.00000000000000	0.09416500000000	0.00000000000000	0.00000000000000	0.00000000000000	0.00000000000000	0.00000000000000	0.00000000000000	0.00000000000000	28.15974300000000	0.00000000000000	0.00000000000000	0.00000000000000	0.00000000000000	
22.05325400000000	52.93395000000000	748.78626099999997	53.68240000000000	0.36897500000000	0.00000000000000	0.09420900000000	0.00000000000000	0.00000000000000	0.00000000000000	0.00000000000000	0.00000000000000	0.00000000000000	0.00000000000000	28.14410700000000	0.00000000000000	0.00000000000000	0.00000000000000	0.00000000000000	
22.05491700000000	52.36692600000000	750.02675699999998	53.71699900000000	0.36741200000000	0.00000000000000	0.09425100000000	0.00000000000000	0.00000000000000	0.00000000000000	0.00000000000000	0.00000000000000	0.00000000000000	0.00000000000000	28.12721800000000	0.00000000000000	0.00000000000000	0.00000000000000	0.00000000000000	
22.05659600000000	51.80903200000000	751.21241699999996	53.74707800000000	0.36587200000000	0.00000000000000	0.09429100000000	0.00000000000000	0.00000000000000	0.00000000000000	0.00000000000000	0.00000000000000	0.00000000000000	0.00000000000000	28.10862700000000	0.00000000000000	0.00000000000000	0.00000000000000	0.00000000000000	
22.05825000000000	51.25971500000000	752.34067700000003	53.77179800000000	0.36435600000000	0.00000000000000	0.09432800000000	0.00000000000000	0.00000000000000	0.00000000000000	0.00000000000000	0.00000000000000	0.00000000000000	0.00000000000000	28.08788500000000	0.00000000000000	0.00000000000000	0.00000000000000	0.00000000000000	
22.05992100000000	50.71840000000000	753.40904499999999	53.79032700000000	0.36286500000000	0.00000000000000	0.09436300000000	0.00000000000000	0.00000000000000	0.00000000000000	0.00000000000000	0.00000000000000	0.00000000000000	0.00000000000000	28.06454600000000	0.00000000000000	0.00000000000000	0.00000000000000	0.00000000000000	
22.06158900000000	50.18448900000000	754.41511200000002	53.80185100000000	0.36139900000000	0.00000000000000	0.09439500000000	0.00000000000000	0.00000000000000	0.00000000000000	0.00000000000000	0.00000000000000	0.00000000000000	0.00000000000000	28.03817400000000	0.00000000000000	0.00000000000000	0.00000000000000	0.00000000000000	
22.06324800000000	49.65737200000000	755.35657300000003	53.80557800000000	0.35996000000000	0.00000000000000	0.09442500000000	0.00000000000000	0.00000000000000	0.00000000000000	0.00000000000000	0.00000000000000	0.00000000000000	0.00000000000000	28.00834300000000	0.00000000000000	0.00000000000000	0.00000000000000	0.00000000000000	
22.06491600000000	49.13643100000000	756.23123799999996	53.80074600000000	0.35854800000000	0.00000000000000	0.09445100000000	0.00000000000000	0.00000000000000	0.00000000000000	0.00000000000000	0.00000000000000	0.00000000000000	0.00000000000000	27.97464000000000	0.00000000000000	0.00000000000000	0.00000000000000	0.00000000000000	
22.06659000000000	48.62104500000000	757.03704600000003	53.78662600000000	0.35716300000000	0.00000000000000	0.09447500000000	0.00000000000000	0.00000000000000	0.00000000000000	0.00000000000000	0.00000000000000	0.00000000000000	0.00000000000000	27.93667200000000	0.00000000000000	0.00000000000000	0.00000000000000	0.00000000000000	
22.06825000000000	48.11059700000000	757.77207599999997	53.76253200000000	0.35580700000000	0.00000000000000	0.09449500000000	0.00000000000000	0.00000000000000	0.00000000000000	0.00000000000000	0.00000000000000	0.00000000000000	0.00000000000000	27.89406400000000	0.00000000000000	0.00000000000000	0.00000000000000	0.00000000000000	
22.06992000000000	47.60447700000000	758.43456200000003	53.72782000000000	0.35447900000000	0.00000000000000	0.09451100000000	0.00000000000000	0.00000000000000	0.00000000000000	0.00000000000000	0.00000000000000	0.00000000000000	0.00000000000000	27.84646400000000	0.00000000000000	0.00000000000000	0.00000000000000	0.00000000000000	
22.07158300000000	47.10208800000000	759.02289900000005	53.68189600000000	0.35317900000000	0.00000000000000	0.09452500000000	0.00000000000000	0.00000000000000	0.00000000000000	0.00000000000000	0.00000000000000	0.00000000000000	0.00000000000000	27.79354700000000	0.00000000000000	0.00000000000000	0.00000000000000	0.00000000000000	
